# xmcd CD database file
#
# Track frame offsets:
#	150
#	14100
#	23250
#	32700
#	44775
#	57300
#	71625
#	85275
#	102300
#	115425
#	128475
#	138375
#	150525
#	163050
#
# Disc length: 2363 seconds
#
# Revision: 1
# Processed by: cddbd v1.5.1PL2 Copyright (c) Steve Scherf et al.
# Submitted via: freeDBTagger 0.8.2.1
#
DISCID=be09390e
DTITLE=Tom Jones - Starboulevard [CD2]
DYEAR=2005
DGENRE=misc
TTITLE0=Letter To Lucille
TTITLE1=Its Not Unusual
TTITLE2=What New Pussycat
TTITLE3=Memphis , Tennessee
TTITLE4=Its Just A Matter Of Time
TTITLE5=Whatcha Gonna Do
TTITLE6=Skye Boat Song
TTITLE7=Without Love
TTITLE8=Thunderball
TTITLE9=Chills And Fever
TTITLE10=Once Upon A Time
TTITLE11=If You Need Me
TTITLE12=I Need Your Loving
TTITLE13=Autumn Leaves
EXTD=
EXTT0=
EXTT1=
EXTT2=
EXTT3=
EXTT4=
EXTT5=
EXTT6=
EXTT7=
EXTT8=
EXTT9=
EXTT10=
EXTT11=
EXTT12=
EXTT13=
PLAYORDER=
